<svg xmlns="http://www.w3.org/2000/svg" viewBox="0 0 219.53 247.14"><defs><style>.cls-1{fill:#3370ff;}.cls-2{fill:#00eed4;}</style></defs><title>资源 10</title><g id="图层_2" data-name="图层 2"><g id="图层_1-2" data-name="图层 1"><path class="cls-1" d="M0,137.13v38a20.55,20.55,0,0,0,10.27,17.79l89.22,51.51a20.51,20.51,0,0,0,20.55,0l89.22-51.5a20.56,20.56,0,0,0,10.27-17.8v-38L120,194.58a20.46,20.46,0,0,1-20.5,0Z"/><path class="cls-1" d="M0,62V100a20.56,20.56,0,0,0,10.27,17.8l89.22,51.51a20.55,20.55,0,0,0,20.55,0l89.22-51.51A20.53,20.53,0,0,0,219.53,100V62L120,119.48a20.51,20.51,0,0,1-20.5,0Z"/><path class="cls-2" d="M120,2.75a20.55,20.55,0,0,0-20.55,0l-81.44,47L61.76,75,99.49,53.23a20.55,20.55,0,0,1,20.55,0L157.77,75l43.72-25.24Z"/></g></g></svg>